<svg xmlns="http://www.w3.org/2000/svg" xmlns:v="https://svgstorm.com"
viewBox = "0 0 561 551"
width="561"
height="551"

stroke="red"
>
<g fill="None" fill-opacity="0.0" stroke="#000000" stroke-opacity="0.00" stroke-width="0.3"><path d="
M 0.00 551.00 
L 561.00 551.00
L 561.00 0.00
L 0.00 0.00
L 0.00 551.00
M 395.00 21.00 
C 421.97 21.00 449.59 34.56 470.00 52.00
C 479.38 60.02 490.74 70.35 496.77 81.23 C 502.80 92.11 514.74 106.13 515.00 119.00
C 515.01 119.50 515.00 120.00 515.00 120.00
C 521.75 128.32 521.99 146.29 522.00 157.00
C 522.00 157.50 522.00 158.00 522.00 158.00
C 525.12 162.22 523.98 182.96 521.00 187.00
C 521.00 187.50 521.00 188.00 521.00 188.00
C 522.43 201.17 514.05 215.31 510.08 227.08 C 506.10 238.84 498.18 248.35 491.00 258.00
C 483.71 267.80 475.14 276.61 465.00 284.00
C 463.27 285.26 461.66 286.04 460.00 287.00
C 458.35 288.20 456.87 289.83 455.00 291.00
C 454.64 291.22 454.00 291.00 454.00 291.00
C 452.96 292.42 451.79 293.52 450.00 294.00
C 449.53 294.13 449.00 294.00 449.00 294.00
C 447.68 296.11 445.23 297.02 443.00 298.00
C 427.90 304.67 412.04 311.00 395.00 311.00
C 344.25 315.91 289.68 311.99 238.00 312.00
C 237.50 312.00 237.00 312.00 237.00 312.00
C 214.33 312.00 191.67 312.00 169.00 312.00
C 169.30 333.75 169.00 355.10 169.00 377.00
C 169.49 381.02 171.89 385.46 172.00 390.00
C 172.01 390.50 172.00 391.00 172.00 391.00
C 173.31 392.27 173.30 393.36 174.00 395.00
C 176.56 401.01 180.38 406.82 184.00 412.00
C 187.60 416.05 194.43 421.29 199.00 424.00
C 200.49 424.70 202.39 425.33 204.00 426.00
C 205.16 426.48 207.06 427.66 208.00 428.00
C 211.00 428.75 214.00 429.20 217.00 430.00
C 235.66 432.61 255.07 429.24 274.00 430.00 C 292.93 430.76 312.98 430.51 332.00 430.00 C 351.02 429.49 371.09 432.11 390.00 430.00
C 395.62 428.69 401.64 427.08 407.00 425.00
C 421.97 417.60 435.15 398.93 438.00 383.00
C 438.22 380.19 436.90 374.16 439.00 372.00
C 442.77 368.12 452.17 371.97 458.00 371.00 C 463.83 370.03 472.56 371.32 479.00 371.00 C 485.44 370.68 493.32 370.89 500.00 371.00 C 506.68 371.11 514.28 370.39 521.00 371.00
C 524.49 371.20 523.42 381.07 522.00 383.00
C 522.00 383.50 522.00 384.00 522.00 384.00
C 524.11 390.32 520.23 409.77 516.00 415.00
C 515.92 415.49 516.00 416.00 516.00 416.00
C 515.65 418.12 514.70 419.96 514.00 422.00
C 504.19 450.69 483.81 478.86 457.00 495.00
C 455.59 495.85 454.33 496.31 453.00 497.00
C 449.02 499.62 445.39 501.85 441.00 504.00
C 430.29 510.98 414.81 515.30 402.00 516.00
C 399.75 516.37 396.89 517.00 394.00 517.00
C 393.50 517.00 393.00 517.00 393.00 517.00
C 390.78 518.64 386.94 518.00 384.00 518.00
C 328.40 518.00 269.58 522.28 215.00 517.00
C 201.83 517.00 189.93 513.45 178.00 509.00
C 176.31 508.37 175.28 508.32 174.00 507.00
C 173.50 506.97 173.00 507.00 173.00 507.00
C 168.91 506.04 160.27 502.63 158.00 499.00
C 157.57 498.83 157.00 499.00 157.00 499.00
C 142.46 493.75 129.31 478.52 119.25 466.75 C 109.19 454.99 96.53 437.54 94.00 422.00
C 93.92 421.51 94.00 421.00 94.00 421.00
C 90.24 413.81 86.06 401.67 87.00 393.00
C 87.05 392.51 87.00 392.00 87.00 392.00
C 82.25 381.13 86.06 367.02 85.00 354.00 C 83.94 340.98 85.80 325.27 85.00 312.00
C 80.04 308.53 68.94 314.11 63.00 312.00 C 57.06 309.89 46.98 314.15 41.00 312.00 C 35.02 309.85 23.05 315.54 18.00 312.00
C 13.64 308.95 17.97 297.32 17.00 292.00 C 16.02 286.67 17.63 275.09 17.00 269.00 C 16.37 262.91 17.21 255.04 17.00 248.00 C 16.79 240.96 16.36 234.09 17.00 227.00
C 17.24 222.78 32.75 225.61 38.00 225.00 C 43.25 224.39 54.44 225.31 61.00 225.00 C 67.56 224.69 78.08 225.23 85.00 225.00
C 85.61 200.83 83.74 175.35 86.00 152.00
C 86.00 148.69 86.52 146.01 87.00 143.00
C 88.18 135.57 89.92 128.77 92.00 122.00
C 92.52 119.21 93.04 117.62 94.00 115.00
C 96.75 107.46 100.29 100.81 104.00 94.00
C 106.56 89.30 109.01 84.64 112.00 80.00
C 114.63 75.92 117.79 72.43 121.00 69.00
C 123.32 66.51 125.57 63.27 128.00 61.00
C 132.69 55.17 140.34 49.30 147.00 45.00
C 157.09 38.49 166.67 32.79 178.00 29.00
C 179.31 28.39 180.41 27.53 182.00 27.00
C 213.45 16.49 246.72 20.41 281.00 20.00 C 315.28 19.59 352.46 20.00 387.00 20.00
C 389.77 20.00 392.96 20.80 395.00 21.00 Z"/>
</g>
<g fill="None" fill-opacity="0.0" stroke="#37AB9C" stroke-opacity="1.00" stroke-width="0.3"><path d="
M 182.00 27.00 
C 180.69 27.61 179.59 28.47 178.00 29.00
C 166.67 32.79 157.09 38.49 147.00 45.00
C 141.41 49.55 134.97 54.83 130.00 60.00
C 127.20 62.91 123.57 66.05 121.00 69.00
C 118.12 72.30 115.36 76.34 113.00 80.00
C 109.98 84.68 106.67 89.40 104.00 94.00
C 100.11 100.70 97.28 108.36 94.00 115.00
C 93.04 117.62 92.52 119.21 92.00 122.00
C 90.70 129.01 88.74 136.47 87.00 143.00
C 86.52 146.01 86.00 148.69 86.00 152.00
C 86.00 152.50 86.00 153.50 86.00 154.00
C 91.31 153.52 96.66 154.13 102.00 154.00 C 107.34 153.87 113.73 153.90 119.00 154.00 C 124.27 154.10 131.07 153.62 136.00 154.00 C 140.93 154.38 148.90 153.08 153.00 154.00 C 157.10 154.92 167.12 151.45 169.00 155.00
C 170.84 139.85 183.61 120.73 198.00 114.00
C 204.96 110.74 213.23 107.68 221.00 107.00
C 238.14 103.51 257.86 106.52 276.00 106.00 C 294.14 105.48 313.80 105.36 332.00 106.00 C 350.20 106.64 370.83 103.38 388.00 107.00
C 395.26 107.68 403.43 110.93 410.00 114.00
C 425.75 121.36 435.17 139.23 438.00 155.00
C 438.55 158.08 441.08 165.28 439.00 168.00
C 439.01 168.50 439.00 169.00 439.00 169.00
C 439.00 188.54 426.79 210.89 408.00 219.00
C 401.66 221.74 394.72 223.39 388.00 225.00
C 365.31 230.45 338.09 225.37 314.00 226.00 C 289.91 226.63 262.16 228.18 238.00 226.00
C 240.52 253.81 238.00 283.06 238.00 311.00
C 263.88 308.66 289.96 311.86 316.00 311.00 C 342.04 310.14 368.89 311.00 395.00 311.00
C 412.04 311.00 427.90 304.67 443.00 298.00
C 444.98 296.90 446.57 294.95 449.00 294.00
C 449.00 294.00 449.53 294.13 450.00 294.00
C 451.04 292.58 452.21 291.48 454.00 291.00
C 454.00 291.00 454.64 291.22 455.00 291.00
C 456.43 288.81 457.86 288.24 460.00 287.00
C 461.66 286.04 463.27 285.26 465.00 284.00
C 473.68 275.97 483.43 267.03 491.00 258.00
C 499.34 248.05 502.73 237.35 509.31 226.31 C 515.88 215.26 515.79 199.03 521.00 188.00
C 521.00 188.00 521.00 187.50 521.00 187.00
C 521.00 177.42 521.99 167.85 522.00 158.00
C 522.00 158.00 522.00 157.50 522.00 157.00
C 519.10 153.08 520.44 143.10 519.07 137.93 C 517.70 132.75 515.20 125.37 515.00 120.00
C 515.00 120.00 515.01 119.50 515.00 119.00
C 508.90 107.35 504.28 92.66 496.23 81.77 C 488.18 70.88 479.68 61.68 470.00 52.00
C 449.59 34.56 421.97 21.00 395.00 21.00
C 392.23 21.00 389.04 20.20 387.00 20.00
C 352.46 20.00 315.28 19.59 281.00 20.00 C 246.72 20.41 213.45 16.49 182.00 27.00 Z"/>
</g>
<g fill="None" fill-opacity="0.0" stroke="#DEF2EE" stroke-opacity="0.42" stroke-width="0.3"><path d="
M 395.00 21.00 
C 392.96 20.80 389.77 20.00 387.00 20.00
C 389.04 20.20 392.23 21.00 395.00 21.00 Z"/>
</g>
<g fill="None" fill-opacity="0.0" stroke="#F1F8F7" stroke-opacity="0.24" stroke-width="0.3"><path d="
M 178.00 29.00 
C 179.59 28.47 180.69 27.61 182.00 27.00
C 180.41 27.53 179.31 28.39 178.00 29.00 Z"/>
</g>
<g fill="None" fill-opacity="0.0" stroke="#E9F5F4" stroke-opacity="0.32" stroke-width="0.3"><path d="
M 128.00 61.00 
C 128.52 60.51 129.50 60.40 130.00 60.00
C 134.97 54.83 141.41 49.55 147.00 45.00
C 140.34 49.30 132.69 55.17 128.00 61.00 Z"/>
</g>
<g fill="None" fill-opacity="0.0" stroke="#EDF8F6" stroke-opacity="0.29" stroke-width="0.3"><path d="
M 515.00 119.00 
C 514.74 106.13 502.80 92.11 496.77 81.23 C 490.74 70.35 479.38 60.02 470.00 52.00
C 479.68 61.68 488.18 70.88 496.23 81.77 C 504.28 92.66 508.90 107.35 515.00 119.00 Z"/>
</g>
<g fill="None" fill-opacity="0.0" stroke="#D5EEEB" stroke-opacity="0.54" stroke-width="0.3"><path d="
M 128.00 61.00 
C 125.57 63.27 123.32 66.51 121.00 69.00
C 123.57 66.05 127.20 62.91 130.00 60.00
C 129.50 60.40 128.52 60.51 128.00 61.00 Z"/>
</g>
<g fill="None" fill-opacity="0.0" stroke="#F3FAF9" stroke-opacity="0.24" stroke-width="0.3"><path d="
M 112.00 80.00 
C 112.22 79.75 113.00 80.00 113.00 80.00
C 115.36 76.34 118.12 72.30 121.00 69.00
C 117.79 72.43 114.63 75.92 112.00 80.00 Z"/>
</g>
<g fill="None" fill-opacity="0.0" stroke="#E1F3F1" stroke-opacity="0.41" stroke-width="0.3"><path d="
M 104.00 94.00 
C 106.67 89.40 109.98 84.68 113.00 80.00
C 113.00 80.00 112.22 79.75 112.00 80.00
C 109.01 84.64 106.56 89.30 104.00 94.00 Z"/>
</g>
<g fill="None" fill-opacity="0.0" stroke="#F2FAF8" stroke-opacity="0.24" stroke-width="0.3"><path d="
M 94.00 115.00 
C 97.28 108.36 100.11 100.70 104.00 94.00
C 100.29 100.81 96.75 107.46 94.00 115.00 Z"/>
</g>
<g fill="None" fill-opacity="0.0" stroke="#E0F0F0" stroke-opacity="0.48" stroke-width="0.3"><path d="
M 221.00 107.00 
C 248.29 104.60 276.55 106.90 304.00 107.00 C 331.45 107.10 360.65 104.43 388.00 107.00
C 370.83 103.38 350.20 106.64 332.00 106.00 C 313.80 105.36 294.14 105.48 276.00 106.00 C 257.86 106.52 238.14 103.51 221.00 107.00 Z"/>
</g>
<g fill="None" fill-opacity="0.0" stroke="#000000" stroke-opacity="0.00" stroke-width="0.3"><path d="
M 198.00 114.00 
C 190.29 118.58 185.46 125.31 179.25 132.25 C 173.04 139.18 172.64 152.29 169.00 160.00
C 169.00 160.50 169.00 161.00 169.00 161.00
C 169.00 182.44 169.20 203.52 169.00 225.00
C 192.00 225.00 215.00 225.00 238.00 225.00
C 262.84 225.00 288.21 226.09 313.00 225.00 C 337.79 223.91 363.40 227.90 388.00 225.00
C 394.72 223.39 401.66 221.74 408.00 219.00
C 413.75 215.87 417.33 211.19 422.75 206.75 C 428.17 202.31 429.29 195.69 433.32 190.32 C 437.35 184.95 435.49 173.73 439.00 169.00
C 439.00 169.00 439.01 168.50 439.00 168.00
C 438.91 164.01 438.66 159.07 438.00 155.00
C 435.57 140.03 423.55 122.04 410.00 114.00
C 403.43 110.93 395.26 107.68 388.00 107.00
C 360.65 104.43 331.45 107.10 304.00 107.00 C 276.55 106.90 248.29 104.60 221.00 107.00
C 213.23 107.68 204.96 110.74 198.00 114.00 Z"/>
</g>
<g fill="None" fill-opacity="0.0" stroke="#EBF6F5" stroke-opacity="0.31" stroke-width="0.3"><path d="
M 169.00 155.00 
C 168.80 156.61 169.00 158.38 169.00 160.00
C 172.64 152.29 173.04 139.18 179.25 132.25 C 185.46 125.31 190.29 118.58 198.00 114.00
C 183.61 120.73 170.84 139.85 169.00 155.00 Z"/>
</g>
<g fill="None" fill-opacity="0.0" stroke="#EEF8F6" stroke-opacity="0.28" stroke-width="0.3"><path d="
M 438.00 155.00 
C 435.17 139.23 425.75 121.36 410.00 114.00
C 423.55 122.04 435.57 140.03 438.00 155.00 Z"/>
</g>
<g fill="None" fill-opacity="0.0" stroke="#EBF7F5" stroke-opacity="0.30" stroke-width="0.3"><path d="
M 522.00 157.00 
C 521.99 146.29 521.75 128.32 515.00 120.00
C 515.20 125.37 517.70 132.75 519.07 137.93 C 520.44 143.10 519.10 153.08 522.00 157.00 Z"/>
</g>
<g fill="None" fill-opacity="0.0" stroke="#EAF6F4" stroke-opacity="0.32" stroke-width="0.3"><path d="
M 87.00 143.00 
C 88.74 136.47 90.70 129.01 92.00 122.00
C 89.92 128.77 88.18 135.57 87.00 143.00 Z"/>
</g>
<g fill="None" fill-opacity="0.0" stroke="#FEFDF9" stroke-opacity="0.18" stroke-width="0.3"><path d="
M 85.00 225.00 
C 89.35 220.65 84.81 209.61 86.00 203.00 C 87.19 196.39 85.55 186.27 86.00 179.00 C 86.45 171.73 86.00 162.45 86.00 155.00
C 86.00 154.50 86.00 154.00 86.00 154.00
C 86.00 153.50 86.00 152.50 86.00 152.00
C 83.74 175.35 85.61 200.83 85.00 225.00 Z"/>
</g>
<g fill="None" fill-opacity="0.0" stroke="#B19C6E" stroke-opacity="1.00" stroke-width="0.3"><path d="
M 86.00 155.00 
C 113.11 157.45 140.83 153.16 168.00 155.00
C 168.00 157.00 168.00 159.00 168.00 161.00
C 168.01 160.94 169.00 161.00 169.00 161.00
C 169.00 161.00 169.00 160.50 169.00 160.00
C 169.00 158.38 168.80 156.61 169.00 155.00
C 167.12 151.45 157.10 154.92 153.00 154.00 C 148.90 153.08 140.93 154.38 136.00 154.00 C 131.07 153.62 124.27 154.10 119.00 154.00 C 113.73 153.90 107.34 153.87 102.00 154.00 C 96.66 154.13 91.31 153.52 86.00 154.00
C 86.00 154.00 86.00 154.50 86.00 155.00 Z"/>
</g>
<g fill="None" fill-opacity="0.0" stroke="#FE914D" stroke-opacity="1.00" stroke-width="0.3"><path d="
M 85.00 225.00 
C 80.63 229.37 69.19 224.34 63.00 226.00 C 56.81 227.66 46.42 224.49 40.00 226.00 C 33.58 227.51 23.15 223.19 18.00 227.00
C 20.48 254.46 16.12 283.84 18.00 312.00
C 23.05 315.54 35.02 309.85 41.00 312.00 C 46.98 314.15 57.06 309.89 63.00 312.00 C 68.94 314.11 80.04 308.53 85.00 312.00
C 88.60 314.52 85.12 324.29 86.00 329.00 C 86.88 333.71 85.78 341.59 86.00 347.00 C 86.22 352.41 86.31 359.29 86.00 365.00 C 85.69 370.71 86.51 377.98 87.00 383.00
C 91.51 386.16 101.17 381.70 107.00 383.00 C 112.83 384.30 121.65 382.50 128.00 383.00 C 134.35 383.50 141.41 383.07 148.00 383.00 C 154.59 382.93 162.35 383.60 169.00 383.00
C 168.76 382.70 169.00 382.00 169.00 382.00
C 165.41 377.15 168.51 365.35 168.00 359.00 C 167.49 352.65 167.23 341.15 168.00 335.00 C 168.77 328.85 164.96 316.04 169.00 312.00
C 173.23 307.77 183.63 312.22 190.00 311.00 C 196.37 309.78 206.01 311.64 213.00 311.00 C 219.99 310.36 228.84 311.48 236.00 311.00
C 236.00 282.67 236.00 254.33 236.00 226.00
C 229.03 226.00 220.85 226.49 214.00 226.00 C 207.15 225.51 197.32 227.22 191.00 226.00 C 184.68 224.78 173.23 229.23 169.00 225.00
C 165.05 221.05 168.91 211.05 168.00 205.00 C 167.09 198.95 168.11 189.63 168.00 183.00 C 167.89 176.37 167.39 167.74 168.00 161.00
C 168.00 159.00 168.00 157.00 168.00 155.00
C 140.83 153.16 113.11 157.45 86.00 155.00
C 86.00 162.45 86.45 171.73 86.00 179.00 C 85.55 186.27 87.19 196.39 86.00 203.00 C 84.81 209.61 89.35 220.65 85.00 225.00 Z"/>
</g>
<g fill="None" fill-opacity="0.0" stroke="#D9EFEC" stroke-opacity="0.44" stroke-width="0.3"><path d="
M 439.00 168.00 
C 441.08 165.28 438.55 158.08 438.00 155.00
C 438.66 159.07 438.91 164.01 439.00 168.00 Z"/>
</g>
<g fill="None" fill-opacity="0.0" stroke="#F7FCFB" stroke-opacity="0.17" stroke-width="0.3"><path d="
M 521.00 187.00 
C 523.98 182.96 525.12 162.22 522.00 158.00
C 521.99 167.85 521.00 177.42 521.00 187.00 Z"/>
</g>
<g fill="None" fill-opacity="0.0" stroke="#FDD7BD" stroke-opacity="0.69" stroke-width="0.3"><path d="
M 169.00 225.00 
C 169.20 203.52 169.00 182.44 169.00 161.00
C 169.00 161.00 168.01 160.94 168.00 161.00
C 167.39 167.74 167.89 176.37 168.00 183.00 C 168.11 189.63 167.09 198.95 168.00 205.00 C 168.91 211.05 165.05 221.05 169.00 225.00 Z"/>
</g>
<g fill="None" fill-opacity="0.0" stroke="#EDF7F6" stroke-opacity="0.29" stroke-width="0.3"><path d="
M 408.00 219.00 
C 426.79 210.89 439.00 188.54 439.00 169.00
C 435.49 173.73 437.35 184.95 433.32 190.32 C 429.29 195.69 428.17 202.31 422.75 206.75 C 417.33 211.19 413.75 215.87 408.00 219.00 Z"/>
</g>
<g fill="None" fill-opacity="0.0" stroke="#F0F9F7" stroke-opacity="0.26" stroke-width="0.3"><path d="
M 491.00 258.00 
C 498.18 248.35 506.10 238.84 510.08 227.08 C 514.05 215.31 522.43 201.17 521.00 188.00
C 515.79 199.03 515.88 215.26 509.31 226.31 C 502.73 237.35 499.34 248.05 491.00 258.00 Z"/>
</g>
<g fill="None" fill-opacity="0.0" stroke="#F3E5D6" stroke-opacity="0.56" stroke-width="0.3"><path d="
M 17.00 227.00 
C 17.00 226.96 18.00 227.00 18.00 227.00
C 23.15 223.19 33.58 227.51 40.00 226.00 C 46.42 224.49 56.81 227.66 63.00 226.00 C 69.19 224.34 80.63 229.37 85.00 225.00
C 78.08 225.23 67.56 224.69 61.00 225.00 C 54.44 225.31 43.25 224.39 38.00 225.00 C 32.75 225.61 17.24 222.78 17.00 227.00 Z"/>
</g>
<g fill="None" fill-opacity="0.0" stroke="#F5ECE3" stroke-opacity="0.45" stroke-width="0.3"><path d="
M 236.00 226.00 
C 236.50 226.00 237.00 226.00 237.00 226.00
C 237.50 226.00 238.00 226.00 238.00 226.00
C 238.25 225.75 238.00 225.00 238.00 225.00
C 215.00 225.00 192.00 225.00 169.00 225.00
C 173.23 229.23 184.68 224.78 191.00 226.00 C 197.32 227.22 207.15 225.51 214.00 226.00 C 220.85 226.49 229.03 226.00 236.00 226.00 Z"/>
</g>
<g fill="None" fill-opacity="0.0" stroke="#E1F3F0" stroke-opacity="0.46" stroke-width="0.3"><path d="
M 238.00 226.00 
C 262.16 228.18 289.91 226.63 314.00 226.00 C 338.09 225.37 365.31 230.45 388.00 225.00
C 363.40 227.90 337.79 223.91 313.00 225.00 C 288.21 226.09 262.84 225.00 238.00 225.00
C 238.00 225.00 238.25 225.75 238.00 226.00 Z"/>
</g>
<g fill="None" fill-opacity="0.0" stroke="#E1985E" stroke-opacity="1.00" stroke-width="0.3"><path d="
M 169.00 312.00 
C 191.67 312.00 214.33 312.00 237.00 312.00
C 234.42 283.57 239.56 254.43 237.00 226.00
C 237.00 226.00 236.50 226.00 236.00 226.00
C 236.00 254.33 236.00 282.67 236.00 311.00
C 228.84 311.48 219.99 310.36 213.00 311.00 C 206.01 311.64 196.37 309.78 190.00 311.00 C 183.63 312.22 173.23 307.77 169.00 312.00 Z"/>
</g>
<g fill="None" fill-opacity="0.0" stroke="#89A07B" stroke-opacity="1.00" stroke-width="0.3"><path d="
M 237.00 312.00 
C 237.00 312.00 237.50 312.00 238.00 312.00
C 238.25 311.75 238.00 311.00 238.00 311.00
C 238.00 283.06 240.52 253.81 238.00 226.00
C 238.00 226.00 237.50 226.00 237.00 226.00
C 239.56 254.43 234.42 283.57 237.00 312.00 Z"/>
</g>
<g fill="None" fill-opacity="0.0" stroke="#F4D5BB" stroke-opacity="0.70" stroke-width="0.3"><path d="
M 18.00 312.00 
C 16.12 283.84 20.48 254.46 18.00 227.00
C 18.00 227.00 17.00 226.96 17.00 227.00
C 16.36 234.09 16.79 240.96 17.00 248.00 C 17.21 255.04 16.37 262.91 17.00 269.00 C 17.63 275.09 16.02 286.67 17.00 292.00 C 17.97 297.32 13.64 308.95 18.00 312.00 Z"/>
</g>
<g fill="None" fill-opacity="0.0" stroke="#E3F3F1" stroke-opacity="0.39" stroke-width="0.3"><path d="
M 465.00 284.00 
C 475.14 276.61 483.71 267.80 491.00 258.00
C 483.43 267.03 473.68 275.97 465.00 284.00 Z"/>
</g>
<g fill="None" fill-opacity="0.0" stroke="#E5F4F2" stroke-opacity="0.36" stroke-width="0.3"><path d="
M 455.00 291.00 
C 456.87 289.83 458.35 288.20 460.00 287.00
C 457.86 288.24 456.43 288.81 455.00 291.00 Z"/>
</g>
<g fill="None" fill-opacity="0.0" stroke="#EFF9F7" stroke-opacity="0.27" stroke-width="0.3"><path d="
M 450.00 294.00 
C 451.79 293.52 452.96 292.42 454.00 291.00
C 452.21 291.48 451.04 292.58 450.00 294.00 Z"/>
</g>
<g fill="None" fill-opacity="0.0" stroke="#E4F4F1" stroke-opacity="0.37" stroke-width="0.3"><path d="
M 443.00 298.00 
C 445.23 297.02 447.68 296.11 449.00 294.00
C 446.57 294.95 444.98 296.90 443.00 298.00 Z"/>
</g>
<g fill="None" fill-opacity="0.0" stroke="#68C0B4" stroke-opacity="0.98" stroke-width="0.3"><path d="
M 238.00 312.00 
C 289.68 311.99 344.25 315.91 395.00 311.00
C 368.89 311.00 342.04 310.14 316.00 311.00 C 289.96 311.86 263.88 308.66 238.00 311.00
C 238.00 311.00 238.25 311.75 238.00 312.00 Z"/>
</g>
<g fill="None" fill-opacity="0.0" stroke="#FCFDF8" stroke-opacity="0.19" stroke-width="0.3"><path d="
M 87.00 392.00 
C 87.00 389.05 87.28 385.94 87.00 383.00
C 86.51 377.98 85.69 370.71 86.00 365.00 C 86.31 359.29 86.22 352.41 86.00 347.00 C 85.78 341.59 86.88 333.71 86.00 329.00 C 85.12 324.29 88.60 314.52 85.00 312.00
C 85.80 325.27 83.94 340.98 85.00 354.00 C 86.06 367.02 82.25 381.13 87.00 392.00 Z"/>
</g>
<g fill="None" fill-opacity="0.0" stroke="#F8C39E" stroke-opacity="0.84" stroke-width="0.3"><path d="
M 169.00 382.00 
C 169.00 380.33 169.00 378.67 169.00 377.00
C 169.00 355.10 169.30 333.75 169.00 312.00
C 164.96 316.04 168.77 328.85 168.00 335.00 C 167.23 341.15 167.49 352.65 168.00 359.00 C 168.51 365.35 165.41 377.15 169.00 382.00 Z"/>
</g>
<g fill="None" fill-opacity="0.0" stroke="#C0E6E0" stroke-opacity="0.70" stroke-width="0.3"><path d="
M 439.00 372.00 
C 443.47 368.77 453.18 373.43 459.00 372.00 C 464.82 370.57 473.65 372.75 480.00 372.00 C 486.35 371.25 493.39 372.50 500.00 372.00 C 506.61 371.50 514.31 372.61 521.00 372.00
C 520.76 371.68 521.00 371.00 521.00 371.00
C 514.28 370.39 506.68 371.11 500.00 371.00 C 493.32 370.89 485.44 370.68 479.00 371.00 C 472.56 371.32 463.83 370.03 458.00 371.00 C 452.17 371.97 442.77 368.12 439.00 372.00 Z"/>
</g>
<g fill="None" fill-opacity="0.0" stroke="#FBFDFD" stroke-opacity="0.14" stroke-width="0.3"><path d="
M 521.00 372.00 
C 522.88 374.54 522.00 379.65 522.00 383.00
C 523.42 381.07 524.49 371.20 521.00 371.00
C 521.00 371.00 520.76 371.68 521.00 372.00 Z"/>
</g>
<g fill="None" fill-opacity="0.0" stroke="#37AB9C" stroke-opacity="1.00" stroke-width="0.3"><path d="
M 438.00 383.00 
C 436.71 399.30 422.59 418.95 407.00 425.00
C 401.64 427.08 395.62 428.69 390.00 430.00
C 372.51 434.07 351.59 430.40 333.00 431.00 C 314.41 431.60 293.60 432.00 275.00 431.00 C 256.40 430.00 234.37 434.64 217.00 430.00
C 214.00 429.20 211.00 428.75 208.00 428.00
C 206.23 427.55 205.38 426.78 204.00 426.00
C 202.39 425.33 200.49 424.70 199.00 424.00
C 193.82 421.56 187.30 416.71 184.00 412.00
C 180.38 406.82 176.56 401.01 174.00 395.00
C 173.19 393.61 172.12 392.95 172.00 391.00
C 172.00 391.00 172.01 390.50 172.00 390.00
C 170.88 387.94 170.54 384.89 169.00 383.00
C 162.35 383.60 154.59 382.93 148.00 383.00 C 141.41 383.07 134.35 383.50 128.00 383.00 C 121.65 382.50 112.83 384.30 107.00 383.00 C 101.17 381.70 91.51 386.16 87.00 383.00
C 87.28 385.94 87.00 389.05 87.00 392.00
C 87.00 392.00 87.05 392.51 87.00 393.00
C 89.92 399.18 93.86 413.87 94.00 421.00
C 94.00 421.00 93.92 421.51 94.00 422.00
C 100.84 429.97 102.89 443.48 109.75 452.25 C 116.62 461.02 122.52 470.13 130.75 478.25 C 138.99 486.36 149.43 491.10 157.00 499.00
C 157.00 499.00 157.57 498.83 158.00 499.00
C 162.92 500.93 169.05 503.83 173.00 507.00
C 173.00 507.00 173.50 506.97 174.00 507.00
C 175.91 507.12 176.64 508.30 178.00 509.00
C 189.93 513.45 201.83 517.00 215.00 517.00
C 271.33 517.00 327.67 517.00 384.00 517.00
C 387.00 517.00 390.00 517.00 393.00 517.00
C 393.00 517.00 393.50 517.00 394.00 517.00
C 396.13 515.42 399.20 516.15 402.00 516.00
C 414.81 515.30 430.29 510.98 441.00 504.00
C 444.71 501.58 448.93 499.12 453.00 497.00
C 454.33 496.31 455.59 495.85 457.00 495.00
C 482.38 475.90 502.76 451.92 513.00 422.00
C 513.77 419.75 514.55 417.69 516.00 416.00
C 516.00 416.00 515.92 415.49 516.00 415.00
C 516.76 410.37 517.60 404.45 519.00 400.00 C 520.40 395.55 519.50 387.38 522.00 384.00
C 522.00 384.00 522.00 383.50 522.00 383.00
C 522.00 379.65 522.88 374.54 521.00 372.00
C 514.31 372.61 506.61 371.50 500.00 372.00 C 493.39 372.50 486.35 371.25 480.00 372.00 C 473.65 372.75 464.82 370.57 459.00 372.00 C 453.18 373.43 443.47 368.77 439.00 372.00
C 436.90 374.16 438.22 380.19 438.00 383.00 Z"/>
</g>
<g fill="None" fill-opacity="0.0" stroke="#F0F8F6" stroke-opacity="0.26" stroke-width="0.3"><path d="
M 169.00 382.00 
C 169.00 382.00 168.76 382.70 169.00 383.00
C 170.54 384.89 170.88 387.94 172.00 390.00
C 171.89 385.46 169.49 381.02 169.00 377.00
C 169.00 378.67 169.00 380.33 169.00 382.00 Z"/>
</g>
<g fill="None" fill-opacity="0.0" stroke="#EBF7F5" stroke-opacity="0.31" stroke-width="0.3"><path d="
M 407.00 425.00 
C 422.59 418.95 436.71 399.30 438.00 383.00
C 435.15 398.93 421.97 417.60 407.00 425.00 Z"/>
</g>
<g fill="None" fill-opacity="0.0" stroke="#EBF6F5" stroke-opacity="0.29" stroke-width="0.3"><path d="
M 516.00 415.00 
C 520.23 409.77 524.11 390.32 522.00 384.00
C 519.50 387.38 520.40 395.55 519.00 400.00 C 517.60 404.45 516.76 410.37 516.00 415.00 Z"/>
</g>
<g fill="None" fill-opacity="0.0" stroke="#F0F9F6" stroke-opacity="0.27" stroke-width="0.3"><path d="
M 174.00 395.00 
C 173.30 393.36 173.31 392.27 172.00 391.00
C 172.12 392.95 173.19 393.61 174.00 395.00 Z"/>
</g>
<g fill="None" fill-opacity="0.0" stroke="#EDF7F6" stroke-opacity="0.29" stroke-width="0.3"><path d="
M 94.00 421.00 
C 93.86 413.87 89.92 399.18 87.00 393.00
C 86.06 401.67 90.24 413.81 94.00 421.00 Z"/>
</g>
<g fill="None" fill-opacity="0.0" stroke="#E7F5F3" stroke-opacity="0.35" stroke-width="0.3"><path d="
M 199.00 424.00 
C 194.43 421.29 187.60 416.05 184.00 412.00
C 187.30 416.71 193.82 421.56 199.00 424.00 Z"/>
</g>
<g fill="None" fill-opacity="0.0" stroke="#DDF1EE" stroke-opacity="0.44" stroke-width="0.3"><path d="
M 513.00 422.00 
C 513.04 421.87 514.00 422.00 514.00 422.00
C 514.70 419.96 515.65 418.12 516.00 416.00
C 514.55 417.69 513.77 419.75 513.00 422.00 Z"/>
</g>
<g fill="None" fill-opacity="0.0" stroke="#ECF7F5" stroke-opacity="0.30" stroke-width="0.3"><path d="
M 157.00 499.00 
C 149.43 491.10 138.99 486.36 130.75 478.25 C 122.52 470.13 116.62 461.02 109.75 452.25 C 102.89 443.48 100.84 429.97 94.00 422.00
C 96.53 437.54 109.19 454.99 119.25 466.75 C 129.31 478.52 142.46 493.75 157.00 499.00 Z"/>
</g>
<g fill="None" fill-opacity="0.0" stroke="#EDF8F6" stroke-opacity="0.29" stroke-width="0.3"><path d="
M 457.00 495.00 
C 483.81 478.86 504.19 450.69 514.00 422.00
C 514.00 422.00 513.04 421.87 513.00 422.00
C 502.76 451.92 482.38 475.90 457.00 495.00 Z"/>
</g>
<g fill="None" fill-opacity="0.0" stroke="#E9F6F5" stroke-opacity="0.31" stroke-width="0.3"><path d="
M 208.00 428.00 
C 207.06 427.66 205.16 426.48 204.00 426.00
C 205.38 426.78 206.23 427.55 208.00 428.00 Z"/>
</g>
<g fill="None" fill-opacity="0.0" stroke="#FEFEFE" stroke-opacity="0.04" stroke-width="0.3"><path d="
M 390.00 430.00 
C 371.09 432.11 351.02 429.49 332.00 430.00 C 312.98 430.51 292.93 430.76 274.00 430.00 C 255.07 429.24 235.66 432.61 217.00 430.00
C 234.37 434.64 256.40 430.00 275.00 431.00 C 293.60 432.00 314.41 431.60 333.00 431.00 C 351.59 430.40 372.51 434.07 390.00 430.00 Z"/>
</g>
<g fill="None" fill-opacity="0.0" stroke="#F0F9F7" stroke-opacity="0.26" stroke-width="0.3"><path d="
M 441.00 504.00 
C 445.39 501.85 449.02 499.62 453.00 497.00
C 448.93 499.12 444.71 501.58 441.00 504.00 Z"/>
</g>
<g fill="None" fill-opacity="0.0" stroke="#EBF6F5" stroke-opacity="0.33" stroke-width="0.3"><path d="
M 173.00 507.00 
C 169.05 503.83 162.92 500.93 158.00 499.00
C 160.27 502.63 168.91 506.04 173.00 507.00 Z"/>
</g>
<g fill="None" fill-opacity="0.0" stroke="#E4F4F2" stroke-opacity="0.38" stroke-width="0.3"><path d="
M 178.00 509.00 
C 176.64 508.30 175.91 507.12 174.00 507.00
C 175.28 508.32 176.31 508.37 178.00 509.00 Z"/>
</g>
<g fill="None" fill-opacity="0.0" stroke="#E2F4F1" stroke-opacity="0.40" stroke-width="0.3"><path d="
M 394.00 517.00 
C 396.89 517.00 399.75 516.37 402.00 516.00
C 399.20 516.15 396.13 515.42 394.00 517.00 Z"/>
</g>
<g fill="None" fill-opacity="0.0" stroke="#D5EDEB" stroke-opacity="0.56" stroke-width="0.3"><path d="
M 384.00 518.00 
C 383.96 518.00 384.00 517.00 384.00 517.00
C 327.67 517.00 271.33 517.00 215.00 517.00
C 269.58 522.28 328.40 518.00 384.00 518.00 Z"/>
</g>
<g fill="None" fill-opacity="0.0" stroke="#F3FAF9" stroke-opacity="0.26" stroke-width="0.3"><path d="
M 384.00 518.00 
C 386.94 518.00 390.78 518.64 393.00 517.00
C 390.00 517.00 387.00 517.00 384.00 517.00
C 384.00 517.00 383.96 518.00 384.00 518.00 Z"/>
</g>
<g fill="#000000" fill-opacity="0.00" stroke="None">
<path d="
M 0.00 551.00 
L 561.00 551.00
L 561.00 0.00
L 0.00 0.00
L 0.00 551.00
M 395.00 21.00 
C 421.97 21.00 449.59 34.56 470.00 52.00
C 479.38 60.02 490.74 70.35 496.77 81.23 C 502.80 92.11 514.74 106.13 515.00 119.00
C 515.01 119.50 515.00 120.00 515.00 120.00
C 521.75 128.32 521.99 146.29 522.00 157.00
C 522.00 157.50 522.00 158.00 522.00 158.00
C 525.12 162.22 523.98 182.96 521.00 187.00
C 521.00 187.50 521.00 188.00 521.00 188.00
C 522.43 201.17 514.05 215.31 510.08 227.08 C 506.10 238.84 498.18 248.35 491.00 258.00
C 483.71 267.80 475.14 276.61 465.00 284.00
C 463.27 285.26 461.66 286.04 460.00 287.00
C 458.35 288.20 456.87 289.83 455.00 291.00
C 454.64 291.22 454.00 291.00 454.00 291.00
C 452.96 292.42 451.79 293.52 450.00 294.00
C 449.53 294.13 449.00 294.00 449.00 294.00
C 447.68 296.11 445.23 297.02 443.00 298.00
C 427.90 304.67 412.04 311.00 395.00 311.00
C 344.25 315.91 289.68 311.99 238.00 312.00
C 237.50 312.00 237.00 312.00 237.00 312.00
C 214.33 312.00 191.67 312.00 169.00 312.00
C 169.30 333.75 169.00 355.10 169.00 377.00
C 169.49 381.02 171.89 385.46 172.00 390.00
C 172.01 390.50 172.00 391.00 172.00 391.00
C 173.31 392.27 173.30 393.36 174.00 395.00
C 176.56 401.01 180.38 406.82 184.00 412.00
C 187.60 416.05 194.43 421.29 199.00 424.00
C 200.49 424.70 202.39 425.33 204.00 426.00
C 205.16 426.48 207.06 427.66 208.00 428.00
C 211.00 428.75 214.00 429.20 217.00 430.00
C 235.66 432.61 255.07 429.24 274.00 430.00 C 292.93 430.76 312.98 430.51 332.00 430.00 C 351.02 429.49 371.09 432.11 390.00 430.00
C 395.62 428.69 401.64 427.08 407.00 425.00
C 421.97 417.60 435.15 398.93 438.00 383.00
C 438.22 380.19 436.90 374.16 439.00 372.00
C 442.77 368.12 452.17 371.97 458.00 371.00 C 463.83 370.03 472.56 371.32 479.00 371.00 C 485.44 370.68 493.32 370.89 500.00 371.00 C 506.68 371.11 514.28 370.39 521.00 371.00
C 524.49 371.20 523.42 381.07 522.00 383.00
C 522.00 383.50 522.00 384.00 522.00 384.00
C 524.11 390.32 520.23 409.77 516.00 415.00
C 515.92 415.49 516.00 416.00 516.00 416.00
C 515.65 418.12 514.70 419.96 514.00 422.00
C 504.19 450.69 483.81 478.86 457.00 495.00
C 455.59 495.85 454.33 496.31 453.00 497.00
C 449.02 499.62 445.39 501.85 441.00 504.00
C 430.29 510.98 414.81 515.30 402.00 516.00
C 399.75 516.37 396.89 517.00 394.00 517.00
C 393.50 517.00 393.00 517.00 393.00 517.00
C 390.78 518.64 386.94 518.00 384.00 518.00
C 328.40 518.00 269.58 522.28 215.00 517.00
C 201.83 517.00 189.93 513.45 178.00 509.00
C 176.31 508.37 175.28 508.32 174.00 507.00
C 173.50 506.97 173.00 507.00 173.00 507.00
C 168.91 506.04 160.27 502.63 158.00 499.00
C 157.57 498.83 157.00 499.00 157.00 499.00
C 142.46 493.75 129.31 478.52 119.25 466.75 C 109.19 454.99 96.53 437.54 94.00 422.00
C 93.92 421.51 94.00 421.00 94.00 421.00
C 90.24 413.81 86.06 401.67 87.00 393.00
C 87.05 392.51 87.00 392.00 87.00 392.00
C 82.25 381.13 86.06 367.02 85.00 354.00 C 83.94 340.98 85.80 325.27 85.00 312.00
C 80.04 308.53 68.94 314.11 63.00 312.00 C 57.06 309.89 46.98 314.15 41.00 312.00 C 35.02 309.85 23.05 315.54 18.00 312.00
C 13.64 308.95 17.97 297.32 17.00 292.00 C 16.02 286.67 17.63 275.09 17.00 269.00 C 16.37 262.91 17.21 255.04 17.00 248.00 C 16.79 240.96 16.36 234.09 17.00 227.00
C 17.24 222.78 32.75 225.61 38.00 225.00 C 43.25 224.39 54.44 225.31 61.00 225.00 C 67.56 224.69 78.08 225.23 85.00 225.00
C 85.61 200.83 83.74 175.35 86.00 152.00
C 86.00 148.69 86.52 146.01 87.00 143.00
C 88.18 135.57 89.92 128.77 92.00 122.00
C 92.52 119.21 93.04 117.62 94.00 115.00
C 96.75 107.46 100.29 100.81 104.00 94.00
C 106.56 89.30 109.01 84.64 112.00 80.00
C 114.63 75.92 117.79 72.43 121.00 69.00
C 123.32 66.51 125.57 63.27 128.00 61.00
C 132.69 55.17 140.34 49.30 147.00 45.00
C 157.09 38.49 166.67 32.79 178.00 29.00
C 179.31 28.39 180.41 27.53 182.00 27.00
C 213.45 16.49 246.72 20.41 281.00 20.00 C 315.28 19.59 352.46 20.00 387.00 20.00
C 389.77 20.00 392.96 20.80 395.00 21.00 Z"/>
</g>
<g fill="#37AB9C" fill-opacity="1.00" stroke="None">
<path d="
M 182.00 27.00 
C 180.69 27.61 179.59 28.47 178.00 29.00
C 166.67 32.79 157.09 38.49 147.00 45.00
C 141.41 49.55 134.97 54.83 130.00 60.00
C 127.20 62.91 123.57 66.05 121.00 69.00
C 118.12 72.30 115.36 76.34 113.00 80.00
C 109.98 84.68 106.67 89.40 104.00 94.00
C 100.11 100.70 97.28 108.36 94.00 115.00
C 93.04 117.62 92.52 119.21 92.00 122.00
C 90.70 129.01 88.74 136.47 87.00 143.00
C 86.52 146.01 86.00 148.69 86.00 152.00
C 86.00 152.50 86.00 153.50 86.00 154.00
C 91.31 153.52 96.66 154.13 102.00 154.00 C 107.34 153.87 113.73 153.90 119.00 154.00 C 124.27 154.10 131.07 153.62 136.00 154.00 C 140.93 154.38 148.90 153.08 153.00 154.00 C 157.10 154.92 167.12 151.45 169.00 155.00
C 170.84 139.85 183.61 120.73 198.00 114.00
C 204.96 110.74 213.23 107.68 221.00 107.00
C 238.14 103.51 257.86 106.52 276.00 106.00 C 294.14 105.48 313.80 105.36 332.00 106.00 C 350.20 106.64 370.83 103.38 388.00 107.00
C 395.26 107.68 403.43 110.93 410.00 114.00
C 425.75 121.36 435.17 139.23 438.00 155.00
C 438.55 158.08 441.08 165.28 439.00 168.00
C 439.01 168.50 439.00 169.00 439.00 169.00
C 439.00 188.54 426.79 210.89 408.00 219.00
C 401.66 221.74 394.72 223.39 388.00 225.00
C 365.31 230.45 338.09 225.37 314.00 226.00 C 289.91 226.63 262.16 228.18 238.00 226.00
C 240.52 253.81 238.00 283.06 238.00 311.00
C 263.88 308.66 289.96 311.86 316.00 311.00 C 342.04 310.14 368.89 311.00 395.00 311.00
C 412.04 311.00 427.90 304.67 443.00 298.00
C 444.98 296.90 446.57 294.95 449.00 294.00
C 449.00 294.00 449.53 294.13 450.00 294.00
C 451.04 292.58 452.21 291.48 454.00 291.00
C 454.00 291.00 454.64 291.22 455.00 291.00
C 456.43 288.81 457.86 288.24 460.00 287.00
C 461.66 286.04 463.27 285.26 465.00 284.00
C 473.68 275.97 483.43 267.03 491.00 258.00
C 499.34 248.05 502.73 237.35 509.31 226.31 C 515.88 215.26 515.79 199.03 521.00 188.00
C 521.00 188.00 521.00 187.50 521.00 187.00
C 521.00 177.42 521.99 167.85 522.00 158.00
C 522.00 158.00 522.00 157.50 522.00 157.00
C 519.10 153.08 520.44 143.10 519.07 137.93 C 517.70 132.75 515.20 125.37 515.00 120.00
C 515.00 120.00 515.01 119.50 515.00 119.00
C 508.90 107.35 504.28 92.66 496.23 81.77 C 488.18 70.88 479.68 61.68 470.00 52.00
C 449.59 34.56 421.97 21.00 395.00 21.00
C 392.23 21.00 389.04 20.20 387.00 20.00
C 352.46 20.00 315.28 19.59 281.00 20.00 C 246.72 20.41 213.45 16.49 182.00 27.00 Z"/>
</g>
<g fill="#DEF2EE" fill-opacity="0.42" stroke="None">
<path d="
M 395.00 21.00 
C 392.96 20.80 389.77 20.00 387.00 20.00
C 389.04 20.20 392.23 21.00 395.00 21.00 Z"/>
</g>
<g fill="#F1F8F7" fill-opacity="0.24" stroke="None">
<path d="
M 178.00 29.00 
C 179.59 28.47 180.69 27.61 182.00 27.00
C 180.41 27.53 179.31 28.39 178.00 29.00 Z"/>
</g>
<g fill="#E9F5F4" fill-opacity="0.32" stroke="None">
<path d="
M 128.00 61.00 
C 128.52 60.51 129.50 60.40 130.00 60.00
C 134.97 54.83 141.41 49.55 147.00 45.00
C 140.34 49.30 132.69 55.17 128.00 61.00 Z"/>
</g>
<g fill="#EDF8F6" fill-opacity="0.29" stroke="None">
<path d="
M 515.00 119.00 
C 514.74 106.13 502.80 92.11 496.77 81.23 C 490.74 70.35 479.38 60.02 470.00 52.00
C 479.68 61.68 488.18 70.88 496.23 81.77 C 504.28 92.66 508.90 107.35 515.00 119.00 Z"/>
</g>
<g fill="#D5EEEB" fill-opacity="0.54" stroke="None">
<path d="
M 128.00 61.00 
C 125.57 63.27 123.32 66.51 121.00 69.00
C 123.57 66.05 127.20 62.91 130.00 60.00
C 129.50 60.40 128.52 60.51 128.00 61.00 Z"/>
</g>
<g fill="#F3FAF9" fill-opacity="0.24" stroke="None">
<path d="
M 112.00 80.00 
C 112.22 79.75 113.00 80.00 113.00 80.00
C 115.36 76.34 118.12 72.30 121.00 69.00
C 117.79 72.43 114.63 75.92 112.00 80.00 Z"/>
</g>
<g fill="#E1F3F1" fill-opacity="0.41" stroke="None">
<path d="
M 104.00 94.00 
C 106.67 89.40 109.98 84.68 113.00 80.00
C 113.00 80.00 112.22 79.75 112.00 80.00
C 109.01 84.64 106.56 89.30 104.00 94.00 Z"/>
</g>
<g fill="#F2FAF8" fill-opacity="0.24" stroke="None">
<path d="
M 94.00 115.00 
C 97.28 108.36 100.11 100.70 104.00 94.00
C 100.29 100.81 96.75 107.46 94.00 115.00 Z"/>
</g>
<g fill="#E0F0F0" fill-opacity="0.48" stroke="None">
<path d="
M 221.00 107.00 
C 248.29 104.60 276.55 106.90 304.00 107.00 C 331.45 107.10 360.65 104.43 388.00 107.00
C 370.83 103.38 350.20 106.64 332.00 106.00 C 313.80 105.36 294.14 105.48 276.00 106.00 C 257.86 106.52 238.14 103.51 221.00 107.00 Z"/>
</g>
<g fill="#000000" fill-opacity="0.00" stroke="None">
<path d="
M 198.00 114.00 
C 190.29 118.58 185.46 125.31 179.25 132.25 C 173.04 139.18 172.64 152.29 169.00 160.00
C 169.00 160.50 169.00 161.00 169.00 161.00
C 169.00 182.44 169.20 203.52 169.00 225.00
C 192.00 225.00 215.00 225.00 238.00 225.00
C 262.84 225.00 288.21 226.09 313.00 225.00 C 337.79 223.91 363.40 227.90 388.00 225.00
C 394.72 223.39 401.66 221.74 408.00 219.00
C 413.75 215.87 417.33 211.19 422.75 206.75 C 428.17 202.31 429.29 195.69 433.32 190.32 C 437.35 184.95 435.49 173.73 439.00 169.00
C 439.00 169.00 439.01 168.50 439.00 168.00
C 438.91 164.01 438.66 159.07 438.00 155.00
C 435.57 140.03 423.55 122.04 410.00 114.00
C 403.43 110.93 395.26 107.68 388.00 107.00
C 360.65 104.43 331.45 107.10 304.00 107.00 C 276.55 106.90 248.29 104.60 221.00 107.00
C 213.23 107.68 204.96 110.74 198.00 114.00 Z"/>
</g>
<g fill="#EBF6F5" fill-opacity="0.31" stroke="None">
<path d="
M 169.00 155.00 
C 168.80 156.61 169.00 158.38 169.00 160.00
C 172.64 152.29 173.04 139.18 179.25 132.25 C 185.46 125.31 190.29 118.58 198.00 114.00
C 183.61 120.73 170.84 139.85 169.00 155.00 Z"/>
</g>
<g fill="#EEF8F6" fill-opacity="0.28" stroke="None">
<path d="
M 438.00 155.00 
C 435.17 139.23 425.75 121.36 410.00 114.00
C 423.55 122.04 435.57 140.03 438.00 155.00 Z"/>
</g>
<g fill="#EBF7F5" fill-opacity="0.30" stroke="None">
<path d="
M 522.00 157.00 
C 521.99 146.29 521.75 128.32 515.00 120.00
C 515.20 125.37 517.70 132.75 519.07 137.93 C 520.44 143.10 519.10 153.08 522.00 157.00 Z"/>
</g>
<g fill="#EAF6F4" fill-opacity="0.32" stroke="None">
<path d="
M 87.00 143.00 
C 88.74 136.47 90.70 129.01 92.00 122.00
C 89.92 128.77 88.18 135.57 87.00 143.00 Z"/>
</g>
<g fill="#FEFDF9" fill-opacity="0.18" stroke="None">
<path d="
M 85.00 225.00 
C 89.35 220.65 84.81 209.61 86.00 203.00 C 87.19 196.39 85.55 186.27 86.00 179.00 C 86.45 171.73 86.00 162.45 86.00 155.00
C 86.00 154.50 86.00 154.00 86.00 154.00
C 86.00 153.50 86.00 152.50 86.00 152.00
C 83.74 175.35 85.61 200.83 85.00 225.00 Z"/>
</g>
<g fill="#B19C6E" fill-opacity="1.00" stroke="None">
<path d="
M 86.00 155.00 
C 113.11 157.45 140.83 153.16 168.00 155.00
C 168.00 157.00 168.00 159.00 168.00 161.00
C 168.01 160.94 169.00 161.00 169.00 161.00
C 169.00 161.00 169.00 160.50 169.00 160.00
C 169.00 158.38 168.80 156.61 169.00 155.00
C 167.12 151.45 157.10 154.92 153.00 154.00 C 148.90 153.08 140.93 154.38 136.00 154.00 C 131.07 153.62 124.27 154.10 119.00 154.00 C 113.73 153.90 107.34 153.87 102.00 154.00 C 96.66 154.13 91.31 153.52 86.00 154.00
C 86.00 154.00 86.00 154.50 86.00 155.00 Z"/>
</g>
<g fill="#FE914D" fill-opacity="1.00" stroke="None">
<path d="
M 85.00 225.00 
C 80.63 229.37 69.19 224.34 63.00 226.00 C 56.81 227.66 46.42 224.49 40.00 226.00 C 33.58 227.51 23.15 223.19 18.00 227.00
C 20.48 254.46 16.12 283.84 18.00 312.00
C 23.05 315.54 35.02 309.85 41.00 312.00 C 46.98 314.15 57.06 309.89 63.00 312.00 C 68.94 314.11 80.04 308.53 85.00 312.00
C 88.60 314.52 85.12 324.29 86.00 329.00 C 86.88 333.71 85.78 341.59 86.00 347.00 C 86.22 352.41 86.31 359.29 86.00 365.00 C 85.69 370.71 86.51 377.98 87.00 383.00
C 91.51 386.16 101.17 381.70 107.00 383.00 C 112.83 384.30 121.65 382.50 128.00 383.00 C 134.35 383.50 141.41 383.07 148.00 383.00 C 154.59 382.93 162.35 383.60 169.00 383.00
C 168.76 382.70 169.00 382.00 169.00 382.00
C 165.41 377.15 168.51 365.35 168.00 359.00 C 167.49 352.65 167.23 341.15 168.00 335.00 C 168.77 328.85 164.96 316.04 169.00 312.00
C 173.23 307.77 183.63 312.22 190.00 311.00 C 196.37 309.78 206.01 311.64 213.00 311.00 C 219.99 310.36 228.84 311.48 236.00 311.00
C 236.00 282.67 236.00 254.33 236.00 226.00
C 229.03 226.00 220.85 226.49 214.00 226.00 C 207.15 225.51 197.32 227.22 191.00 226.00 C 184.68 224.78 173.23 229.23 169.00 225.00
C 165.05 221.05 168.91 211.05 168.00 205.00 C 167.09 198.95 168.11 189.63 168.00 183.00 C 167.89 176.37 167.39 167.74 168.00 161.00
C 168.00 159.00 168.00 157.00 168.00 155.00
C 140.83 153.16 113.11 157.45 86.00 155.00
C 86.00 162.45 86.45 171.73 86.00 179.00 C 85.55 186.27 87.19 196.39 86.00 203.00 C 84.81 209.61 89.35 220.65 85.00 225.00 Z"/>
</g>
<g fill="#D9EFEC" fill-opacity="0.44" stroke="None">
<path d="
M 439.00 168.00 
C 441.08 165.28 438.55 158.08 438.00 155.00
C 438.66 159.07 438.91 164.01 439.00 168.00 Z"/>
</g>
<g fill="#F7FCFB" fill-opacity="0.17" stroke="None">
<path d="
M 521.00 187.00 
C 523.98 182.96 525.12 162.22 522.00 158.00
C 521.99 167.85 521.00 177.42 521.00 187.00 Z"/>
</g>
<g fill="#FDD7BD" fill-opacity="0.69" stroke="None">
<path d="
M 169.00 225.00 
C 169.20 203.52 169.00 182.44 169.00 161.00
C 169.00 161.00 168.01 160.94 168.00 161.00
C 167.39 167.74 167.89 176.37 168.00 183.00 C 168.11 189.63 167.09 198.95 168.00 205.00 C 168.91 211.05 165.05 221.05 169.00 225.00 Z"/>
</g>
<g fill="#EDF7F6" fill-opacity="0.29" stroke="None">
<path d="
M 408.00 219.00 
C 426.79 210.89 439.00 188.54 439.00 169.00
C 435.49 173.73 437.35 184.95 433.32 190.32 C 429.29 195.69 428.17 202.31 422.75 206.75 C 417.33 211.19 413.75 215.87 408.00 219.00 Z"/>
</g>
<g fill="#F0F9F7" fill-opacity="0.26" stroke="None">
<path d="
M 491.00 258.00 
C 498.18 248.35 506.10 238.84 510.08 227.08 C 514.05 215.31 522.43 201.17 521.00 188.00
C 515.79 199.03 515.88 215.26 509.31 226.31 C 502.73 237.35 499.34 248.05 491.00 258.00 Z"/>
</g>
<g fill="#F3E5D6" fill-opacity="0.56" stroke="None">
<path d="
M 17.00 227.00 
C 17.00 226.96 18.00 227.00 18.00 227.00
C 23.15 223.19 33.58 227.51 40.00 226.00 C 46.42 224.49 56.81 227.66 63.00 226.00 C 69.19 224.34 80.63 229.37 85.00 225.00
C 78.08 225.23 67.56 224.69 61.00 225.00 C 54.44 225.31 43.25 224.39 38.00 225.00 C 32.75 225.61 17.24 222.78 17.00 227.00 Z"/>
</g>
<g fill="#F5ECE3" fill-opacity="0.45" stroke="None">
<path d="
M 236.00 226.00 
C 236.50 226.00 237.00 226.00 237.00 226.00
C 237.50 226.00 238.00 226.00 238.00 226.00
C 238.25 225.75 238.00 225.00 238.00 225.00
C 215.00 225.00 192.00 225.00 169.00 225.00
C 173.23 229.23 184.68 224.78 191.00 226.00 C 197.32 227.22 207.15 225.51 214.00 226.00 C 220.85 226.49 229.03 226.00 236.00 226.00 Z"/>
</g>
<g fill="#E1F3F0" fill-opacity="0.46" stroke="None">
<path d="
M 238.00 226.00 
C 262.16 228.18 289.91 226.63 314.00 226.00 C 338.09 225.37 365.31 230.45 388.00 225.00
C 363.40 227.90 337.79 223.91 313.00 225.00 C 288.21 226.09 262.84 225.00 238.00 225.00
C 238.00 225.00 238.25 225.75 238.00 226.00 Z"/>
</g>
<g fill="#E1985E" fill-opacity="1.00" stroke="None">
<path d="
M 169.00 312.00 
C 191.67 312.00 214.33 312.00 237.00 312.00
C 234.42 283.57 239.56 254.43 237.00 226.00
C 237.00 226.00 236.50 226.00 236.00 226.00
C 236.00 254.33 236.00 282.67 236.00 311.00
C 228.84 311.48 219.99 310.36 213.00 311.00 C 206.01 311.64 196.37 309.78 190.00 311.00 C 183.63 312.22 173.23 307.77 169.00 312.00 Z"/>
</g>
<g fill="#89A07B" fill-opacity="1.00" stroke="None">
<path d="
M 237.00 312.00 
C 237.00 312.00 237.50 312.00 238.00 312.00
C 238.25 311.75 238.00 311.00 238.00 311.00
C 238.00 283.06 240.52 253.81 238.00 226.00
C 238.00 226.00 237.50 226.00 237.00 226.00
C 239.56 254.43 234.42 283.57 237.00 312.00 Z"/>
</g>
<g fill="#F4D5BB" fill-opacity="0.70" stroke="None">
<path d="
M 18.00 312.00 
C 16.12 283.84 20.48 254.46 18.00 227.00
C 18.00 227.00 17.00 226.96 17.00 227.00
C 16.36 234.09 16.79 240.96 17.00 248.00 C 17.21 255.04 16.37 262.91 17.00 269.00 C 17.63 275.09 16.02 286.67 17.00 292.00 C 17.97 297.32 13.64 308.95 18.00 312.00 Z"/>
</g>
<g fill="#E3F3F1" fill-opacity="0.39" stroke="None">
<path d="
M 465.00 284.00 
C 475.14 276.61 483.71 267.80 491.00 258.00
C 483.43 267.03 473.68 275.97 465.00 284.00 Z"/>
</g>
<g fill="#E5F4F2" fill-opacity="0.36" stroke="None">
<path d="
M 455.00 291.00 
C 456.87 289.83 458.35 288.20 460.00 287.00
C 457.86 288.24 456.43 288.81 455.00 291.00 Z"/>
</g>
<g fill="#EFF9F7" fill-opacity="0.27" stroke="None">
<path d="
M 450.00 294.00 
C 451.79 293.52 452.96 292.42 454.00 291.00
C 452.21 291.48 451.04 292.58 450.00 294.00 Z"/>
</g>
<g fill="#E4F4F1" fill-opacity="0.37" stroke="None">
<path d="
M 443.00 298.00 
C 445.23 297.02 447.68 296.11 449.00 294.00
C 446.57 294.95 444.98 296.90 443.00 298.00 Z"/>
</g>
<g fill="#68C0B4" fill-opacity="0.98" stroke="None">
<path d="
M 238.00 312.00 
C 289.68 311.99 344.25 315.91 395.00 311.00
C 368.89 311.00 342.04 310.14 316.00 311.00 C 289.96 311.86 263.88 308.66 238.00 311.00
C 238.00 311.00 238.25 311.75 238.00 312.00 Z"/>
</g>
<g fill="#FCFDF8" fill-opacity="0.19" stroke="None">
<path d="
M 87.00 392.00 
C 87.00 389.05 87.28 385.94 87.00 383.00
C 86.51 377.98 85.69 370.71 86.00 365.00 C 86.31 359.29 86.22 352.41 86.00 347.00 C 85.78 341.59 86.88 333.71 86.00 329.00 C 85.12 324.29 88.60 314.52 85.00 312.00
C 85.80 325.27 83.94 340.98 85.00 354.00 C 86.06 367.02 82.25 381.13 87.00 392.00 Z"/>
</g>
<g fill="#F8C39E" fill-opacity="0.84" stroke="None">
<path d="
M 169.00 382.00 
C 169.00 380.33 169.00 378.67 169.00 377.00
C 169.00 355.10 169.30 333.75 169.00 312.00
C 164.96 316.04 168.77 328.85 168.00 335.00 C 167.23 341.15 167.49 352.65 168.00 359.00 C 168.51 365.35 165.41 377.15 169.00 382.00 Z"/>
</g>
<g fill="#C0E6E0" fill-opacity="0.70" stroke="None">
<path d="
M 439.00 372.00 
C 443.47 368.77 453.18 373.43 459.00 372.00 C 464.82 370.57 473.65 372.75 480.00 372.00 C 486.35 371.25 493.39 372.50 500.00 372.00 C 506.61 371.50 514.31 372.61 521.00 372.00
C 520.76 371.68 521.00 371.00 521.00 371.00
C 514.28 370.39 506.68 371.11 500.00 371.00 C 493.32 370.89 485.44 370.68 479.00 371.00 C 472.56 371.32 463.83 370.03 458.00 371.00 C 452.17 371.97 442.77 368.12 439.00 372.00 Z"/>
</g>
<g fill="#FBFDFD" fill-opacity="0.14" stroke="None">
<path d="
M 521.00 372.00 
C 522.88 374.54 522.00 379.65 522.00 383.00
C 523.42 381.07 524.49 371.20 521.00 371.00
C 521.00 371.00 520.76 371.68 521.00 372.00 Z"/>
</g>
<g fill="#37AB9C" fill-opacity="1.00" stroke="None">
<path d="
M 438.00 383.00 
C 436.71 399.30 422.59 418.95 407.00 425.00
C 401.64 427.08 395.62 428.69 390.00 430.00
C 372.51 434.07 351.59 430.40 333.00 431.00 C 314.41 431.60 293.60 432.00 275.00 431.00 C 256.40 430.00 234.37 434.64 217.00 430.00
C 214.00 429.20 211.00 428.75 208.00 428.00
C 206.23 427.55 205.38 426.78 204.00 426.00
C 202.39 425.33 200.49 424.70 199.00 424.00
C 193.82 421.56 187.30 416.71 184.00 412.00
C 180.38 406.82 176.56 401.01 174.00 395.00
C 173.19 393.61 172.12 392.95 172.00 391.00
C 172.00 391.00 172.01 390.50 172.00 390.00
C 170.88 387.94 170.54 384.89 169.00 383.00
C 162.35 383.60 154.59 382.93 148.00 383.00 C 141.41 383.07 134.35 383.50 128.00 383.00 C 121.65 382.50 112.83 384.30 107.00 383.00 C 101.17 381.70 91.51 386.16 87.00 383.00
C 87.28 385.94 87.00 389.05 87.00 392.00
C 87.00 392.00 87.05 392.51 87.00 393.00
C 89.92 399.18 93.86 413.87 94.00 421.00
C 94.00 421.00 93.92 421.51 94.00 422.00
C 100.84 429.97 102.89 443.48 109.75 452.25 C 116.62 461.02 122.52 470.13 130.75 478.25 C 138.99 486.36 149.43 491.10 157.00 499.00
C 157.00 499.00 157.57 498.83 158.00 499.00
C 162.92 500.93 169.05 503.83 173.00 507.00
C 173.00 507.00 173.50 506.97 174.00 507.00
C 175.91 507.12 176.64 508.30 178.00 509.00
C 189.93 513.45 201.83 517.00 215.00 517.00
C 271.33 517.00 327.67 517.00 384.00 517.00
C 387.00 517.00 390.00 517.00 393.00 517.00
C 393.00 517.00 393.50 517.00 394.00 517.00
C 396.13 515.42 399.20 516.15 402.00 516.00
C 414.81 515.30 430.29 510.98 441.00 504.00
C 444.71 501.58 448.93 499.12 453.00 497.00
C 454.33 496.31 455.59 495.85 457.00 495.00
C 482.38 475.90 502.76 451.92 513.00 422.00
C 513.77 419.75 514.55 417.69 516.00 416.00
C 516.00 416.00 515.92 415.49 516.00 415.00
C 516.76 410.37 517.60 404.45 519.00 400.00 C 520.40 395.55 519.50 387.38 522.00 384.00
C 522.00 384.00 522.00 383.50 522.00 383.00
C 522.00 379.65 522.88 374.54 521.00 372.00
C 514.31 372.61 506.61 371.50 500.00 372.00 C 493.39 372.50 486.35 371.25 480.00 372.00 C 473.65 372.75 464.82 370.57 459.00 372.00 C 453.18 373.43 443.47 368.77 439.00 372.00
C 436.90 374.16 438.22 380.19 438.00 383.00 Z"/>
</g>
<g fill="#F0F8F6" fill-opacity="0.26" stroke="None">
<path d="
M 169.00 382.00 
C 169.00 382.00 168.76 382.70 169.00 383.00
C 170.54 384.89 170.88 387.94 172.00 390.00
C 171.89 385.46 169.49 381.02 169.00 377.00
C 169.00 378.67 169.00 380.33 169.00 382.00 Z"/>
</g>
<g fill="#EBF7F5" fill-opacity="0.31" stroke="None">
<path d="
M 407.00 425.00 
C 422.59 418.95 436.71 399.30 438.00 383.00
C 435.15 398.93 421.97 417.60 407.00 425.00 Z"/>
</g>
<g fill="#EBF6F5" fill-opacity="0.29" stroke="None">
<path d="
M 516.00 415.00 
C 520.23 409.77 524.11 390.32 522.00 384.00
C 519.50 387.38 520.40 395.55 519.00 400.00 C 517.60 404.45 516.76 410.37 516.00 415.00 Z"/>
</g>
<g fill="#F0F9F6" fill-opacity="0.27" stroke="None">
<path d="
M 174.00 395.00 
C 173.30 393.36 173.31 392.27 172.00 391.00
C 172.12 392.95 173.19 393.61 174.00 395.00 Z"/>
</g>
<g fill="#EDF7F6" fill-opacity="0.29" stroke="None">
<path d="
M 94.00 421.00 
C 93.86 413.87 89.92 399.18 87.00 393.00
C 86.06 401.67 90.24 413.81 94.00 421.00 Z"/>
</g>
<g fill="#E7F5F3" fill-opacity="0.35" stroke="None">
<path d="
M 199.00 424.00 
C 194.43 421.29 187.60 416.05 184.00 412.00
C 187.30 416.71 193.82 421.56 199.00 424.00 Z"/>
</g>
<g fill="#DDF1EE" fill-opacity="0.44" stroke="None">
<path d="
M 513.00 422.00 
C 513.04 421.87 514.00 422.00 514.00 422.00
C 514.70 419.96 515.65 418.12 516.00 416.00
C 514.55 417.69 513.77 419.75 513.00 422.00 Z"/>
</g>
<g fill="#ECF7F5" fill-opacity="0.30" stroke="None">
<path d="
M 157.00 499.00 
C 149.43 491.10 138.99 486.36 130.75 478.25 C 122.52 470.13 116.62 461.02 109.75 452.25 C 102.89 443.48 100.84 429.97 94.00 422.00
C 96.53 437.54 109.19 454.99 119.25 466.75 C 129.31 478.52 142.46 493.75 157.00 499.00 Z"/>
</g>
<g fill="#EDF8F6" fill-opacity="0.29" stroke="None">
<path d="
M 457.00 495.00 
C 483.81 478.86 504.19 450.69 514.00 422.00
C 514.00 422.00 513.04 421.87 513.00 422.00
C 502.76 451.92 482.38 475.90 457.00 495.00 Z"/>
</g>
<g fill="#E9F6F5" fill-opacity="0.31" stroke="None">
<path d="
M 208.00 428.00 
C 207.06 427.66 205.16 426.48 204.00 426.00
C 205.38 426.78 206.23 427.55 208.00 428.00 Z"/>
</g>
<g fill="#FEFEFE" fill-opacity="0.04" stroke="None">
<path d="
M 390.00 430.00 
C 371.09 432.11 351.02 429.49 332.00 430.00 C 312.98 430.51 292.93 430.76 274.00 430.00 C 255.07 429.24 235.66 432.61 217.00 430.00
C 234.37 434.64 256.40 430.00 275.00 431.00 C 293.60 432.00 314.41 431.60 333.00 431.00 C 351.59 430.40 372.51 434.07 390.00 430.00 Z"/>
</g>
<g fill="#F0F9F7" fill-opacity="0.26" stroke="None">
<path d="
M 441.00 504.00 
C 445.39 501.85 449.02 499.62 453.00 497.00
C 448.93 499.12 444.71 501.58 441.00 504.00 Z"/>
</g>
<g fill="#EBF6F5" fill-opacity="0.33" stroke="None">
<path d="
M 173.00 507.00 
C 169.05 503.83 162.92 500.93 158.00 499.00
C 160.27 502.63 168.91 506.04 173.00 507.00 Z"/>
</g>
<g fill="#E4F4F2" fill-opacity="0.38" stroke="None">
<path d="
M 178.00 509.00 
C 176.64 508.30 175.91 507.12 174.00 507.00
C 175.28 508.32 176.31 508.37 178.00 509.00 Z"/>
</g>
<g fill="#E2F4F1" fill-opacity="0.40" stroke="None">
<path d="
M 394.00 517.00 
C 396.89 517.00 399.75 516.37 402.00 516.00
C 399.20 516.15 396.13 515.42 394.00 517.00 Z"/>
</g>
<g fill="#D5EDEB" fill-opacity="0.56" stroke="None">
<path d="
M 384.00 518.00 
C 383.96 518.00 384.00 517.00 384.00 517.00
C 327.67 517.00 271.33 517.00 215.00 517.00
C 269.58 522.28 328.40 518.00 384.00 518.00 Z"/>
</g>
<g fill="#F3FAF9" fill-opacity="0.26" stroke="None">
<path d="
M 384.00 518.00 
C 386.94 518.00 390.78 518.64 393.00 517.00
C 390.00 517.00 387.00 517.00 384.00 517.00
C 384.00 517.00 383.96 518.00 384.00 518.00 Z"/>
</g>
</svg>